<svg width="56" height="56" viewBox="0 0 56 56" fill="none" xmlns="http://www.w3.org/2000/svg">
<rect width="56" height="56" rx="8" fill="#5D8200"/>
<path d="M20.6936 38.4851H15.84C14.8238 38.4851 14 37.6613 14 36.6451V31.5867C14 31.1638 14.1457 30.7537 14.4126 30.4256L25.5952 16.6789C25.9446 16.2493 26.4688 16 27.0225 16H32.5817C33.5979 16 34.4217 16.8238 34.4217 17.84V25.1451C34.4217 26.1613 35.2455 26.9851 36.2617 26.9851H40.68C41.6962 26.9851 42.52 27.8089 42.52 28.8251V37.16C42.52 38.1762 41.6962 39 40.68 39H32.7407C31.7245 39 30.9007 38.1762 30.9007 37.16V32.1732C30.9007 30.4403 28.7238 29.6682 27.6319 31.0139L22.1224 37.8044C21.773 38.235 21.2481 38.4851 20.6936 38.4851Z" fill="white"/>
</svg>
